<svg xmlns="http://www.w3.org/2000/svg" viewBox="0 0 6980.947 1625.008"><path d="M4910 930.845c-12.19-3.503-21.782-9.26-31.369-18.827-15.018-14.987-21.31-31.015-21.282-54.21.028-23.047 6.48-39.099 21.92-54.54 15.34-15.34 31.54-21.903 54.064-21.903s38.725 6.564 54.065 21.904c15.44 15.44 21.892 31.492 21.92 54.539.028 23.188-6.257 39.203-21.282 54.228-9.66 9.658-20.525 15.996-32.895 19.185-11.115 2.866-34.537 2.67-45.141-.376zM4881.333 1413.333v-312h104v624h-104zM4641.333 1221.333v-504h104v1008h-104zM4401.333 1221.333v-504h104v1008h-104zM2679.584 1463.667c-.518-217.396-.976-267.194-2.71-294.334-1.147-17.966-2.113-40.624-2.146-50.35l-.061-17.682 49.666.35L2774 1102l1.177 50.333c.647 27.684 1.547 50.33 2 50.325.453 0 3.099-4.188 5.88-9.295 27.474-50.448 84.103-89.29 150.943-103.532 21.999-4.687 68.556-5.956 95.006-2.59 99.536 12.67 163.261 69.51 186.212 166.092 8.456 35.586 7.981 21.127 8.44 257l.42 215H3120.156l-.519-200.333c-.468-180.723-.741-201.734-2.793-214.64-6.471-40.712-19.014-69.397-39.512-90.361-25.566-26.148-55.897-37.392-100.898-37.405-106.673-.03-171.24 61.848-187.898 180.073-3.626 25.74-4.478 66.335-4.507 215l-.03 147.666h-103.792zM2432 1253.333v-472h112v944h-112zM6938.667 1739.736c-62.404-3.79-132.493-40.911-166.418-88.142l-4.916-6.843-.353 40.29-.352 40.292H6593.333V782.667h188v200.666c0 110.367.457 200.667 1.015 200.667.557 0 3.707-3.379 7-7.508 3.292-4.13 10.405-11.638 15.807-16.685 30.662-28.65 76.206-47.246 130.036-53.095 19.938-2.166 62.126-1.819 79.06.651 60.719 8.855 112.054 36.713 154.739 83.97 74.754 82.762 103.268 219.46 70.518 338.061-27.702 100.321-100.634 174.198-197.4 199.957-32.594 8.676-69.897 12.421-103.441 10.385zm4-167.034c48.69-7.493 84.329-32.25 104.654-72.702 11.708-23.302 16.668-46.315 16.668-77.334 0-31.018-4.96-54.031-16.668-77.333-23.967-47.7-71.377-74.65-131.321-74.65-58.498 0-106.088 26.16-130.32 71.638-6.786 12.738-12.821 30.76-15.85 47.334-3.043 16.651-3.043 49.372 0 66.023 11.926 65.26 54.188 106.885 118.837 117.048 14.73 2.315 38.865 2.304 54-.024zM3974.667 1740.515c-80.953-9.536-141.21-37.983-192.13-90.702-46.815-48.47-77.093-115.666-85.85-190.527-2.328-19.904-2.694-68.421-.652-86.62 5.007-44.635 15.084-80.115 33.36-117.461 45.805-93.596 133.418-154.548 241.232-167.824 21.875-2.694 66.204-2.694 88.08 0 35.842 4.413 64.355 12.764 95.293 27.91 53.395 26.138 92.157 65.046 119.684 120.131 25.782 51.594 36.983 105.265 36.983 177.207v32.704h-503.05l.878 9.45c2.275 24.471 10.995 52.657 24.304 78.55 30.388 59.123 83.767 98.6 147.105 108.792 14.796 2.381 48.807 2.63 67.016.49 60.745-7.138 110.53-33.258 150.031-78.716 6.324-7.278 12.03-13.233 12.68-13.233 2.136 0 78.369 60.075 78.369 61.758 0 2.655-25.462 31.558-38.926 44.186-47.665 44.705-101.295 70.156-170.407 80.872-14.696 2.279-25.465 2.864-58.667 3.187-22.367.218-42.767.149-45.333-.154zm222.666-390.383c0-3.96-1.166-14.01-2.591-22.333-12.885-75.223-62.012-125.803-137.272-141.33-16.919-3.491-57.5-4.807-77.271-2.506-77.93 9.07-137.012 55.671-162.077 127.84-4.534 13.054-10.122 36.65-10.122 42.74v2.79H4197.333zM3530.667 1740.49c-87.505-10.606-125.745-53.925-134.612-152.49-.872-9.698-1.38-85.77-1.384-207v-191.667h-136v-88h136V924h104v177.333h184v88h-184l.052 154.334c.06 173.598.93 212.528 5.216 233.433 9.9 48.28 34.93 67 89.56 66.983 27.956-.01 51.761-4.623 77.116-14.948 6.936-2.824 12.968-5.135 13.404-5.135.742 0 4.076 73.826 4.014 88.883l-.03 6.883-10.542 4.026c-12.773 4.878-38.667 11.412-56.79 14.33-12.835 2.067-78.275 3.788-90 2.367zM5518.667 1747.806c-123.718-4.316-236.432-49.35-316.543-126.473-65.945-63.485-108.837-146.574-125.392-242.906-6.036-35.119-6.732-44.881-6.732-94.427 0-49.546.696-59.308 6.732-94.427 32.462-188.888 164.907-321.876 358.601-360.072 50.611-9.98 122.11-12.618 169.356-6.248 85.554 11.534 158.879 44.408 211.156 94.667 11.58 11.133 28.155 29.7 28.155 31.537 0 .975-142.87 118.316-147.82 121.407-1.841 1.15-4.557-.895-15.587-11.736-14.936-14.68-31.55-26.656-49.343-35.567-62.744-31.425-145.312-31-211.917 1.09-77.83 37.5-129.925 114.084-144.219 212.016-3.245 22.232-3.25 72.371-.01 94.666 7.826 53.843 26.66 101.097 55.72 139.802 50.027 66.627 127.786 102.39 208.205 95.76 30.694-2.532 52.797-8.37 79.277-20.938 28.268-13.417 54.494-34.658 74.03-59.957 5.097-6.6 9.74-12.178 10.32-12.396 1.16-.436 161.778 119.167 162.39 120.923.858 2.455-19.978 27.342-37.575 44.88-43.873 43.727-97.664 74.702-160.625 92.496-47.474 13.417-89.66 17.945-148.18 15.903z" style="fill:#fefefe" transform="translate(-271.993 -454.987)"/><path d="M5963.333 2022.622c-29.377-3.246-74.01-12.453-91.451-18.863l-4.785-1.76 12.484-76.587c6.866-42.123 12.726-76.83 13.022-77.126.296-.296 6.131 1.55 12.968 4.1 26.497 9.89 47.501 13.54 77.096 13.4 37.315-.18 60.565-7.241 78.5-23.846 15.39-14.248 23.643-29.27 43.552-79.267l12.923-32.453-8.454-19.443c-4.65-10.694-64.342-147.844-132.649-304.777l-124.194-285.333 101.42-.342c55.78-.188 101.796.112 102.258.667.461.554 35.595 90.258 78.075 199.34 42.48 109.084 77.535 198.331 77.902 198.328.367 0 30.589-89.702 67.16-199.332L6345.654 1120h96.506c55.458 0 96.507.504 96.507 1.186 0 1.534-284.696 731.695-293.529 752.814-17.435 41.687-34.94 71.258-54.194 91.55-30.038 31.656-65.501 47.848-122.277 55.827-13.49 1.896-91.14 2.814-105.334 1.245z" style="fill:#fefefe" transform="translate(-271.993 -454.987)"/><path d="M1313.333 2069.483c-65.6-34.807-102.34-56.51-154-90.97-60.002-40.024-111.644-79.853-168-129.568-25.637-22.616-90.805-87.423-114.916-114.278-39.436-43.925-86.446-103.454-114.303-144.74-16.685-24.73-19.447-29.1-19.447-30.765 0-2.314-1.656-2.4 27.692 1.43 33.311 4.344 90.951 10.611 130.308 14.167 19.265 1.74 32.39 3.491 32.98 4.4.538.829.988 28.358 1 61.174l.02 59.667 40.333.121c22.183.067 69.883.051 106-.034l65.667-.155V1821.333l20.333.031c67.147.103 118.908-.16 119.354-.607.562-.562.953-86.473.558-122.424l-.245-22.333h-124v-87.712l113.666-.694c105.999-.646 127.251-1.217 185-4.97 127.744-8.3 273.354-27.837 362-48.57 7.334-1.715 26.234-5.967 42-9.448 15.767-3.481 41.43-9.475 57.027-13.32l28.36-6.99-6.244 11.519c-12.08 22.277-35.37 60.36-53.912 88.151-116.315 174.336-280.435 323.65-475.23 432.36-33.064 18.451-80.075 42.367-82.896 42.17-1.34-.092-9.938-4.149-19.105-9.013zM570.667 1694v-58h106.666v116H570.667Zm444-190.667v-64.666H1156V1568h-141.333zM636 1382v-80.667h160v161.334H636zm1032 9.093c-175.963-2.685-354.276-26.02-542.975-71.06-231.596-55.276-430.995-135.588-604.568-243.5-42.302-26.299-73.253-47.783-93.703-65.042a3792.198 3792.198 0 0 0-24-20.038c-7.015-5.801-22.41-20.201-34.213-32-34.275-34.266-54.138-61.19-71.895-97.453-16.244-33.175-21.322-51.668-22.912-83.444-1.335-26.694 2.664-43.31 17.628-73.232 9.461-18.919 31.416-45.049 50.638-60.27 14.479-11.465 35.115-25.051 44.667-29.408A1913.94 1913.94 0 0 0 406 606.651c34.37-16.246 97.95-37.394 140-46.566 7.333-1.6 18.733-4.122 25.333-5.606 32.068-7.209 85.967-14.36 130.55-17.321l23.882-1.586 3.784 4.235c3.154 3.53 3.784 5.42 3.784 11.34 0 9.75-1.747 11.007-18.732 13.47-43.325 6.28-59.313 8.826-67.49 10.743-5.01 1.176-19.533 4.205-32.27 6.732-43.984 8.727-90.355 23.975-120.174 39.517-26.872 14.006-40.535 23.179-54.965 36.9-19.86 18.886-32.401 38.333-40.512 62.824-3.54 10.692-3.753 12.655-3.753 34.667 0 22.06.206 23.952 3.775 34.667 11.351 34.077 37.872 73.067 73.046 107.391C490.351 915.714 511.626 932 516.597 932c1.852 0 2.07-10.24 2.07-97.333 0-78.088.336-97.334 1.703-97.334 4.08 0 66.903-8.462 94.297-12.702 263.886-40.843 487.15-116.06 646.666-217.859 22.058-14.076 50.916-34.432 62.604-44.16 4.37-3.636 8.69-6.612 9.598-6.612.909 0 3.185 1.44 5.059 3.2 6.168 5.792 44.005 32.16 68.698 47.874 194.443 123.736 447.65 203.366 715.375 224.975 28.244 2.28 25.843.604 26.824 18.724 2.181 40.275.737 104.278-3.533 156.56-6.922 84.76-22.62 171.579-45.082 249.334-11.586 40.11-8.275 34.925-26.876 42.08-17.968 6.912-49.785 18.713-80.667 29.921-11.366 4.125-54.866 20.161-96.666 35.636-41.8 15.474-79.658 29.236-84.128 30.583-4.47 1.347-9.164 3.594-10.431 4.994-2.185 2.414-2.178 2.583.128 3.298 4.454 1.381 44.814 5.952 66.43 7.524 24.274 1.764 84.48 1.14 118-1.223 75.245-5.305 146.117-21.282 202.845-45.729 12.04-5.188 17.63-6.968 19.597-6.24 3.625 1.34 6.54 7.196 7.61 15.28 1.577 11.927-1.122 13.717-56.49 37.447-72.995 31.284-85.517 35.57-155.561 53.234-74.192 18.711-116.335 23.708-229.334 27.193-39.672 1.224-51.96 1.273-107.333.428zM406.667 1282v-44.667H488v89.334h-81.333z" style="display:inline;fill:#1dbbd0" transform="translate(-271.993 -454.987)"/><path d="M1304 2064.48c-97.597-52.229-175.96-103.473-253.333-165.664-98.172-78.908-190.122-174.15-259.523-268.816-7.527-10.267-14.862-20.2-16.3-22.073-1.44-1.874-9.267-13.246-17.397-25.272-12.875-19.046-16.403-25.322-14.236-25.322.299 0 16.949 2.068 37 4.596 33.603 4.236 114.056 12.658 141.339 14.795 10.283.806 11.634 1.218 12.315 3.757.42 1.569.773 29.102.783 61.186l.019 58.333 19.666.126c10.817.07 58.482.22 105.924.334l86.256.207-.016 59.796c-.01 32.888.214 60.027.495 60.307.605.605 41.756.9 98.477.704l40.803-.14.858-22.334c.917-23.868 1.054-59.137.302-77.667-.253-6.233-.529-18.983-.613-28.333l-.153-17h-124v-88h174.667v188.667c0 103.766.308 188.666.684 188.666.375 0 9.825-4.575 21-10.167 190.793-95.48 347.801-237.049 454.824-410.096l6.348-10.263 10.239-2.202c30.49-6.556 66.679-14.815 90.745-20.712 14.945-3.662 27.453-6.378 27.794-6.037.34.34-5.434 11.19-12.834 24.107-120.908 211.082-305.64 388.726-533.466 512.998-29.204 15.93-68.758 35.75-70.986 35.57-.924-.075-13.381-6.398-27.681-14.05zM570.667 1694v-58h106.666v116H570.667Zm444-190.667v-64.666H1156V1568h-141.333zM636 1382v-80.667h160v161.334H636zm1263.57.313c8.989-14.293 26.735-44.888 32.382-55.826l7.285-14.112 14.048-.828c56.925-3.356 74.887-5.169 109.382-11.04 46.773-7.96 97.886-23.03 132.777-39.15 9.734-4.497 11.128-4.815 14.159-3.226 4.292 2.248 6.497 7.616 6.694 16.293.115 5.041-.523 7.628-2.403 9.74-6.766 7.602-120.934 55.335-155.473 65.002-28.157 7.882-92.049 23.74-105.088 26.083-6.233 1.12-19.433 3.24-29.333 4.71-9.9 1.471-19.68 2.973-21.733 3.338-2.74.487-3.457.225-2.697-.984zM1322 1359.778c-217.314-37.28-394.837-87.442-560.667-158.425-119.36-51.092-245.654-121.615-319.998-178.686-78.924-60.588-125.34-114.356-151.672-175.699-8.336-19.418-11.396-30.357-14.28-51.035-4.942-35.432-.92-57.118 17.306-93.31 8.247-16.376 30.732-42.592 48.644-56.715C368.4 624.566 392.375 611.489 436 594.27c81.457-32.15 174.618-51.65 275.438-57.653l14.772-.88 3.561 4.233c2.874 3.416 3.562 5.59 3.562 11.258 0 11.298 3.7 10.046-55.333 18.73-11.733 1.726-25.533 4.128-30.667 5.338-5.133 1.21-19.59 4.235-32.125 6.723-23.151 4.593-28.62 5.972-57.39 14.472-32.763 9.678-56.015 19.694-83.818 36.103-38.642 22.808-65.117 54.632-75.625 90.905-2.62 9.043-3.042 13.553-3.042 32.5 0 26.848 1.947 34.896 14.672 60.667 14.048 28.451 44.127 66.315 73.982 93.129 10.09 9.063 29.322 22.204 32.495 22.204 2.004 0 2.185-8.045 2.185-97.333 0-86.042.234-97.334 2.019-97.334 3.594 0 64.672-7.985 87.314-11.416 160.592-24.33 307.947-61.913 436.282-111.277 78.211-30.084 157.206-69.263 218.385-108.313 20.036-12.789 52.702-35.945 62.478-44.29 7.717-6.587 8.48-6.882 11.093-4.286 2.855 2.837 25.801 19.501 43.762 31.78 192.59 131.662 459.685 219.316 738.667 242.412 29.533 2.445 29.05 2.34 29.855 6.458 2.987 15.264 1.835 111.184-1.907 158.812-7.724 98.32-26.561 199.161-52.94 283.4l-3.74 11.947-9.968 3.852c-5.482 2.12-16.267 6.144-23.967 8.945-20.737 7.543-71.924 26.44-77.591 28.645l-4.925 1.916 3.375-8.959c30.497-80.941 50.566-172.518 58.503-266.959 2.5-29.761 3.88-103.36 2.385-127.292l-1.08-17.291-30.667-2.918c-212.761-20.246-413.973-83.221-573.333-179.443-25.516-15.406-45.674-28.678-69.208-45.564l-19.874-14.26-3.46 3.217c-17.226 16.024-81.83 57.467-122.685 78.702-117.19 60.912-238.951 101.157-393.702 130.128-15.623 2.924-63.76 13.271-106.971 22.993L638.2 825.947l9.9 2.275c9.44 2.17 11.202 2.154 37.9-.327 212.382-19.739 400.284-62.223 543.175-122.811 25.47-10.8 72.716-34.412 92.492-46.225l15.666-9.358v356.583c0 196.12-.15 356.499-.333 356.396-.183-.102-6.933-1.318-15-2.702zM406.667 1282v-44.667H488v89.334h-81.333z" style="display:inline;fill:#1cacbf" transform="translate(-271.993 -454.987)"/></svg>